<svg xmlns="http://www.w3.org/2000/svg" xmlns:svgjs="http://svgjs.com/svgjs" xmlns:xlink="http://www.w3.org/1999/xlink" width="288" height="288"><svg xmlns="http://www.w3.org/2000/svg" width="288" height="288" fill="none" viewBox="0 0 126 21"><path fill="#fff" d="M15.1486 20.567H0V0H5.06146V16.0567H15.1307V20.567H15.1486zM24.8246 17.049L23.4832 20.567H18.1177L26.7383 0H31.5314L40.1163 20.567H34.7865L33.4094 17.049H24.8246zM29.117 5.91753L26.4879 12.7191H31.7282L29.117 5.91753zM48.7188 14.6134V20.567H43.6394V0H52.5819C57.6255 0 61.0058 2.77835 61.0058 7.23454 61.0058 10.1031 59.5392 12.3763 57.1068 13.6211L62.3471 20.5851H56.2305L51.8665 14.6134H48.7188zM52.4567 10.0129C54.4062 10.0129 55.9622 8.93041 55.9622 7.23454 55.9622 5.57474 54.4062 4.51031 52.4567 4.51031H48.7009V10.0129H52.4567zM76.4227 20.6933H71.3255L62.4724 0H68.0525L73.8652 13.9459 79.6957 0H85.2758L76.4227 20.6933zM106.953 10.5C106.953 16.3634 102.392 21 96.3467 21 90.3195 21 85.7588 16.3814 85.7588 10.5 85.7588 4.61856 90.3195 0 96.3467 0 102.392 0 106.953 4.61856 106.953 10.5zM101.909 10.5C101.909 7.32474 99.5839 4.65464 96.3467 4.65464 93.1095 4.65464 90.7845 7.32474 90.7845 10.5 90.7845 13.6753 93.1095 16.3454 96.3467 16.3454 99.5839 16.3454 101.909 13.6753 101.909 10.5zM126 20.567H110.851V0H115.913V16.0567H125.982V20.567H126z" class="color4E2A84 svgShape"/></svg></svg>